<?xml version="1.0" encoding="UTF-8" standalone="no"?>
<!-- Created with Inkscape (http://www.inkscape.org/) -->

<svg
   xmlns:dc="http://purl.org/dc/elements/1.1/"
   xmlns:cc="http://creativecommons.org/ns#"
   xmlns:rdf="http://www.w3.org/1999/02/22-rdf-syntax-ns#"
   xmlns:svg="http://www.w3.org/2000/svg"
   xmlns="http://www.w3.org/2000/svg"
   xmlns:sodipodi="http://sodipodi.sourceforge.net/DTD/sodipodi-0.dtd"
   xmlns:inkscape="http://www.inkscape.org/namespaces/inkscape"
   width="76.30909mm"
   height="29.12534mm"
   viewBox="0 0 76.30909 29.12534"
   id="svg2"
   version="1.1"
   inkscape:version="0.91+devel r13781 custom"
   sodipodi:docname="cover.svg">
  <defs
     id="defs4" />
  <sodipodi:namedview
     id="base"
     pagecolor="#ffffff"
     bordercolor="#666666"
     borderopacity="1.0"
     inkscape:pageopacity="0.0"
     inkscape:pageshadow="2"
     inkscape:zoom="3.959798"
     inkscape:cx="111.03296"
     inkscape:cy="42.917173"
     inkscape:document-units="mm"
     inkscape:current-layer="layer1"
     showgrid="false"
     showguides="true"
     inkscape:guide-bbox="true"
     inkscape:window-width="1280"
     inkscape:window-height="751"
     inkscape:window-x="0"
     inkscape:window-y="0"
     inkscape:window-maximized="1"
     fit-margin-top="0"
     fit-margin-left="0"
     fit-margin-right="0"
     fit-margin-bottom="0">
    <sodipodi:guide
       position="-9.4464803e-06,-5.3250693"
       orientation="1,0"
       id="guide5055" />
    <sodipodi:guide
       position="0.10907656,29.12534"
       orientation="0,1"
       id="guide5057" />
    <sodipodi:guide
       position="76.309084,29.12534"
       orientation="1,0"
       id="guide5059" />
    <sodipodi:guide
       position="76.309084,6.0017394e-07"
       orientation="0,1"
       id="guide5061" />
    <sodipodi:guide
       position="33.609135,4.5639005"
       orientation="0,1"
       id="guide5402" />
    <sodipodi:guide
       position="11.024858,4.5639005"
       orientation="1,0"
       id="guide5404" />
    <sodipodi:guide
       position="31.070074,23.94094"
       orientation="0,1"
       id="guide5408" />
    <sodipodi:guide
       position="31.070074,23.94094"
       orientation="1,0"
       id="guide5410" />
    <sodipodi:guide
       position="21.648823,18.46192"
       orientation="0,1"
       id="guide5414" />
    <sodipodi:guide
       position="29.332823,11.44609"
       orientation="0,1"
       id="guide5416" />
    <sodipodi:guide
       position="13.096198,4.5639005"
       orientation="1,0"
       id="guide5418" />
    <sodipodi:guide
       position="22.450631,4.5639005"
       orientation="1,0"
       id="guide5420" />
    <sodipodi:guide
       position="26.192406,4.5639005"
       orientation="1,0"
       id="guide5422" />
  </sodipodi:namedview>
  <metadata
     id="metadata7">
    <rdf:RDF>
      <cc:Work
         rdf:about="">
        <dc:format>image/svg+xml</dc:format>
        <dc:type
           rdf:resource="http://purl.org/dc/dcmitype/StillImage" />
        <dc:title></dc:title>
      </cc:Work>
    </rdf:RDF>
  </metadata>
  <g
     inkscape:label="Layer 1"
     inkscape:groupmode="layer"
     id="layer1"
     transform="translate(57.863845,-114.61591)">
    <path
       style="fill:#24522e;fill-opacity:1;fill-rule:evenodd;stroke:none;stroke-width:0.26458335px;stroke-linecap:butt;stroke-linejoin:miter;stroke-opacity:1"
       d="m -57.863853,114.61591 76.30909,0 0,29.12534 -76.30909,0 0,-29.12534"
       id="path5083"
       inkscape:connector-curvature="0" />
    <g
       id="g5480"
       transform="matrix(0.83952548,-0.2583574,0.2583574,0.83952548,-48.894003,9.6835201)">
      <path
         inkscape:connector-curvature="0"
         id="path5406"
         d="m -46.838985,118.19669 0,20.98066 22.584275,0"
         style="fill:none;fill-rule:evenodd;stroke:#000000;stroke-width:0.26458335px;stroke-linecap:butt;stroke-linejoin:miter;stroke-opacity:1" />
      <path
         inkscape:connector-curvature="0"
         id="path5412"
         d="m -46.838985,119.80031 20.045215,0 0,19.37704"
         style="fill:none;fill-rule:evenodd;stroke:#000000;stroke-width:0.26493612;stroke-linecap:butt;stroke-linejoin:miter;stroke-miterlimit:4;stroke-dasharray:none;stroke-dashoffset:0;stroke-opacity:1" />
      <path
         inkscape:connector-curvature="0"
         id="path5424"
         d="m -46.838985,125.27933 8.018084,0"
         style="fill:none;fill-rule:evenodd;stroke:#000000;stroke-width:0.26458335;stroke-linecap:butt;stroke-linejoin:miter;stroke-miterlimit:4;stroke-dasharray:none;stroke-dashoffset:0;stroke-opacity:1" />
      <path
         inkscape:connector-curvature="0"
         id="path5426"
         d="m -46.838985,132.29516 11.425772,0"
         style="fill:none;fill-rule:evenodd;stroke:#000000;stroke-width:0.26458335;stroke-linecap:butt;stroke-linejoin:miter;stroke-miterlimit:4;stroke-dasharray:none;stroke-dashoffset:0;stroke-opacity:1" />
      <path
         inkscape:connector-curvature="0"
         id="path5428"
         d="m -44.767647,132.29516 0,6.88219"
         style="fill:none;fill-rule:evenodd;stroke:#000000;stroke-width:0.26458335;stroke-linecap:butt;stroke-linejoin:miter;stroke-miterlimit:4;stroke-dasharray:none;stroke-dashoffset:0;stroke-opacity:1" />
      <path
         inkscape:connector-curvature="0"
         id="path5430"
         d="m -35.413213,132.29516 0,6.88219"
         style="fill:none;fill-rule:evenodd;stroke:#000000;stroke-width:0.26458335;stroke-linecap:butt;stroke-linejoin:miter;stroke-miterlimit:4;stroke-dasharray:none;stroke-dashoffset:0;stroke-opacity:1" />
      <path
         inkscape:connector-curvature="0"
         id="path5432"
         d="m -31.671441,132.29516 0,6.88219"
         style="fill:none;fill-rule:evenodd;stroke:#000000;stroke-width:0.26458335;stroke-linecap:butt;stroke-linejoin:miter;stroke-miterlimit:4;stroke-dasharray:none;stroke-dashoffset:0;stroke-opacity:1" />
      <path
         sodipodi:nodetypes="csccc"
         inkscape:connector-curvature="0"
         id="path5441"
         d="m -46.838985,139.17735 c 2.232992,-9.45988 5.352399,-13.86744 8.074868,-13.93395 2.423075,-0.0592 3.349102,2.32559 3.350904,7.05176 l 3.741772,0 4.877671,-12.49485"
         style="fill:none;fill-rule:evenodd;stroke:#000000;stroke-width:0.26458335px;stroke-linecap:butt;stroke-linejoin:miter;stroke-opacity:1" />
      <path
         transform="scale(0.26458334)"
         inkscape:connector-curvature="0"
         id="path5445"
         d="m -176.37162,486.74476 0,-12.62691 12.2877,0 12.28771,0 -1.74424,1.23212 c -3.32281,2.3472 -6.8513,6.45315 -9.79615,11.39931 -1.41804,2.38175 -4.39483,8.37348 -5.35983,10.78837 l -0.73039,1.82779 -3.4724,0.003 -3.4724,0.003 0,-12.6269 z"
         style="opacity:1;fill:#b67241;fill-opacity:1;stroke:none;stroke-width:0.25253814;stroke-linecap:round;stroke-linejoin:round;stroke-miterlimit:4;stroke-dasharray:none;stroke-dashoffset:0" />
      <path
         transform="scale(0.26458334)"
         inkscape:connector-curvature="0"
         id="path5447"
         d="m -133.29516,496.40849 c -0.77963,-14.67107 -3.47912,-21.19728 -9.54947,-23.08659 -1.39217,-0.43329 -2.64735,-0.46674 -17.51332,-0.46674 l -16.01367,0 0,-9.72272 0,-9.72272 37.12106,0 37.12106,0 -0.37237,0.94702 c -0.2048,0.52086 -4.23062,10.83389 -8.94626,22.91784 l -8.5739,21.97082 -6.55761,0.0673 -6.55762,0.0673 -0.1579,-2.97146 z"
         style="opacity:1;fill:#de9e46;fill-opacity:1;stroke:none;stroke-width:0.25253814;stroke-linecap:round;stroke-linejoin:round;stroke-miterlimit:4;stroke-dasharray:none;stroke-dashoffset:0" />
      <path
         transform="scale(0.26458334)"
         inkscape:connector-curvature="0"
         id="path5449"
         d="m -168.03786,499.1415 c 0,-0.43685 1.74426,-4.30337 3.52072,-7.80441 4.56885,-9.0043 10.0612,-15.15213 15.04083,-16.8359 1.75682,-0.59403 4.94723,-0.60987 6.64086,-0.033 1.73179,0.58991 4.00737,2.68052 5.03597,4.62664 1.96581,3.71931 3.33064,11.19365 3.34519,18.31962 l 0.004,1.95717 -16.79379,0 c -9.93892,0 -16.79378,-0.0939 -16.79378,-0.23016 z"
         style="opacity:1;fill:#cb993a;fill-opacity:1;stroke:none;stroke-width:0.25253814;stroke-linecap:round;stroke-linejoin:round;stroke-miterlimit:4;stroke-dasharray:none;stroke-dashoffset:0" />
      <path
         transform="scale(0.26458334)"
         inkscape:connector-curvature="0"
         id="path5451"
         d="m -119.04546,512.64779 0,-12.7353 8.36281,-21.42048 c 4.59955,-11.78127 8.45618,-21.64777 8.57029,-21.92556 0.11411,-0.27779 0.21468,15.09231 0.22348,34.15578 l 0.016,34.66086 -8.5863,0 -8.58629,0 0,-12.7353 z"
         style="opacity:1;fill:#78b6e7;fill-opacity:1;stroke:none;stroke-width:0.25253814;stroke-linecap:round;stroke-linejoin:round;stroke-miterlimit:4;stroke-dasharray:none;stroke-dashoffset:0" />
      <path
         transform="scale(0.26458334)"
         inkscape:connector-curvature="0"
         id="path5453"
         d="m -133.1876,513.00872 0,-12.37436 6.43972,0 6.43973,0 0,12.37436 0,12.37437 -6.43973,0 -6.43972,0 0,-12.37437 z"
         style="opacity:1;fill:#fde94c;fill-opacity:1;stroke:none;stroke-width:0.25253814;stroke-linecap:round;stroke-linejoin:round;stroke-miterlimit:4;stroke-dasharray:none;stroke-dashoffset:0" />
      <path
         transform="scale(0.26458334)"
         inkscape:connector-curvature="0"
         id="path5455"
         d="m -168.54294,513.00872 0,-12.37436 17.04633,0 17.04632,0 0,12.37436 0,12.37437 -17.04632,0 -17.04633,0 0,-12.37437 z"
         style="opacity:1;fill:#d16e35;fill-opacity:1;stroke:none;stroke-width:0.25253814;stroke-linecap:round;stroke-linejoin:round;stroke-miterlimit:4;stroke-dasharray:none;stroke-dashoffset:0" />
      <path
         transform="scale(0.26458334)"
         inkscape:connector-curvature="0"
         id="path5457"
         d="m -176.35688,510.67275 -0.0147,-10.03839 3.15673,0 c 1.7362,0 3.15672,0.0373 3.15672,0.0828 0,0.0456 -0.55931,1.66496 -1.2429,3.59867 -1.51457,4.28428 -3.00923,9.02901 -4.17034,13.23855 l -0.87072,3.15673 -0.0147,-10.03839 z"
         style="opacity:1;fill:#879e4d;fill-opacity:1;stroke:none;stroke-width:0.25253814;stroke-linecap:round;stroke-linejoin:round;stroke-miterlimit:4;stroke-dasharray:none;stroke-dashoffset:0" />
      <path
         transform="scale(0.26458334)"
         inkscape:connector-curvature="0"
         id="path5459"
         d="m -175.33003,521.53189 c 1.72699,-6.62816 5.10317,-17.61454 5.41306,-17.61454 0.0612,0 0.11134,4.82979 0.11134,10.73287 l 0,10.73287 -3.26392,0 -3.26393,0 1.00345,-3.8512 z"
         style="opacity:1;fill:#286e48;fill-opacity:1;stroke:none;stroke-width:0.25253814;stroke-linecap:round;stroke-linejoin:round;stroke-miterlimit:4;stroke-dasharray:none;stroke-dashoffset:0" />
    </g>
  </g>
</svg>
