<?xml version="1.0" encoding="UTF-8" standalone="no"?>
<!-- Generator: Adobe Illustrator 12.0.0, SVG Export Plug-In . SVG Version: 6.00 Build 51448)  -->
<svg
   xmlns:dc="http://purl.org/dc/elements/1.1/"
   xmlns:cc="http://web.resource.org/cc/"
   xmlns:rdf="http://www.w3.org/1999/02/22-rdf-syntax-ns#"
   xmlns:svg="http://www.w3.org/2000/svg"
   xmlns="http://www.w3.org/2000/svg"
   xmlns:xlink="http://www.w3.org/1999/xlink"
   xmlns:sodipodi="http://sodipodi.sourceforge.net/DTD/sodipodi-0.dtd"
   xmlns:inkscape="http://www.inkscape.org/namespaces/inkscape"
   version="1.1"
   id="Layer_1"
   width="130.428"
   height="100"
   viewBox="0 0 130.428 100"
   overflow="visible"
   enable-background="new 0 0 130.428 100"
   xml:space="preserve"
   sodipodi:version="0.32"
   inkscape:version="0.44.1"
   sodipodi:docname="EFTA logo.svg"
   sodipodi:docbase="C:\Documents and Settings\Sigurd\Mine dokumenter\Mine bilder"><metadata
   id="metadata2938"><rdf:RDF><cc:Work
       rdf:about=""><dc:format>image/svg+xml</dc:format><dc:type
         rdf:resource="http://purl.org/dc/dcmitype/StillImage" /></cc:Work></rdf:RDF></metadata><defs
   id="defs2936" /><sodipodi:namedview
   inkscape:window-height="584"
   inkscape:window-width="845"
   inkscape:pageshadow="2"
   inkscape:pageopacity="0.0"
   guidetolerance="10.0"
   gridtolerance="10.0"
   objecttolerance="10.0"
   borderopacity="1.0"
   bordercolor="#666666"
   pagecolor="#ffffff"
   id="base"
   inkscape:zoom="3.77"
   inkscape:cx="65.213997"
   inkscape:cy="50"
   inkscape:window-x="171"
   inkscape:window-y="157"
   inkscape:current-layer="Layer_1" />
<polyline
   clip-rule="evenodd"
   points="32.079,36.547 21.565,15.051 52.428,0.381 62.942,21.877   32.079,36.547 "
   id="polyline2425"
   transform="translate(2,0)"
   style="fill:white;fill-rule:evenodd" />
<g
   id="g2427"
   transform="translate(2,0)">
	<defs
   id="defs2429">
		<rect
   id="XMLID_1_"
   width="130.42799"
   height="100"
   x="0"
   y="0" />
	</defs>
	<clipPath
   id="XMLID_19_">
		<use
   xlink:href="#XMLID_1_"
   id="use2433"
   x="0"
   y="0"
   width="130.42799"
   height="100" />
	</clipPath>
	<polygon
   clip-path="url(#XMLID_19_)"
   stroke-miterlimit="3.864"
   points="32.079,36.547 21.565,15.051 52.428,0.381 62.942,21.877 32.079,36.547 "
   id="polygon2435"
   style="fill:none;stroke:white;stroke-width:0.192;stroke-miterlimit:3.86400008" />
</g>
<polyline
   clip-rule="evenodd"
   points="94.321,36.654 63.036,21.885 73.255,0.242 104.54,15.01   94.321,36.654 "
   id="polyline2437"
   transform="translate(2,0)"
   style="fill:white;fill-rule:evenodd" />
<g
   id="g2439"
   transform="translate(2,0)">
	<defs
   id="defs2441">
		<rect
   id="XMLID_3_"
   width="130.42799"
   height="100"
   x="0"
   y="0" />
	</defs>
	<clipPath
   id="XMLID_20_">
		<use
   xlink:href="#XMLID_3_"
   id="use2445"
   x="0"
   y="0"
   width="130.42799"
   height="100" />
	</clipPath>
	
		<rect
   x="66.489998"
   y="6.4809999"
   transform="matrix(0.9043,0.4269,-0.4269,0.9043,15.8941,-34.0036)"
   clip-path="url(#XMLID_20_)"
   stroke-miterlimit="3.864"
   width="34.596001"
   height="23.934"
   id="rect2447"
   style="fill:none;stroke:white;stroke-width:0.192;stroke-miterlimit:3.86400008" />
</g>
<polyline
   clip-rule="evenodd"
   points="32.018,36.523 23.779,69.971 0.357,64.203 8.596,30.754   32.018,36.523 "
   id="polyline2449"
   transform="translate(2,0)"
   style="fill:white;fill-rule:evenodd" />
<g
   id="g2451"
   transform="translate(2,0)">
	<defs
   id="defs2453">
		<rect
   id="XMLID_5_"
   width="130.42799"
   height="100"
   x="0"
   y="0" />
	</defs>
	<clipPath
   id="XMLID_21_">
		<use
   xlink:href="#XMLID_5_"
   id="use2457"
   x="0"
   y="0"
   width="130.42799"
   height="100" />
	</clipPath>
	
		<rect
   x="-1.036"
   y="38.303001"
   transform="matrix(0.2392,-0.971,0.971,0.2392,-36.5855,54.0357)"
   clip-path="url(#XMLID_21_)"
   stroke-miterlimit="3.864"
   width="34.446999"
   height="24.122"
   id="rect2459"
   style="fill:none;stroke:white;stroke-width:0.192;stroke-miterlimit:3.86400008" />
</g>
<polyline
   clip-rule="evenodd"
   points="102.166,69.953 94.314,36.714 117.909,31.139   125.764,64.379 102.166,69.953 "
   id="polyline2461"
   transform="translate(2,0)"
   style="fill:white;fill-rule:evenodd" />
<rect
   x="57.872814"
   y="-109.53995"
   transform="matrix(0.229903,0.973214,-0.973214,0.229903,0,0)"
   stroke-miterlimit="3.864"
   width="34.153526"
   height="24.243664"
   id="rect2463"
   style="fill:none;stroke:white;stroke-width:0.19199733;stroke-miterlimit:3.86400008" />
<polyline
   clip-rule="evenodd"
   points="103.225,54.531 102.194,50.168 116.702,46.743   117.732,51.104 103.225,54.531 "
   id="polyline2465"
   transform="translate(2,0)"
   style="fill:white;fill-rule:evenodd" />
<rect
   x="72.766754"
   y="-104.78501"
   transform="matrix(0.229808,0.973236,-0.973236,0.229808,0,0)"
   stroke-miterlimit="3.864"
   width="4.4828343"
   height="14.90645"
   id="rect2467"
   style="fill:none;stroke:white;stroke-width:0.19199292;stroke-miterlimit:3.86400008" />
<polyline
   clip-rule="evenodd"
   points="109.468,58.388 106.05,43.926 110.456,42.886   113.875,57.346 109.468,58.388 "
   id="polyline2469"
   transform="translate(2,0)"
   style="fill:white;fill-rule:evenodd" />
<rect
   x="67.600784"
   y="-99.576347"
   transform="matrix(0.229998,0.973191,-0.973191,0.229998,0,0)"
   stroke-miterlimit="3.864"
   width="14.860135"
   height="4.5270414"
   id="rect2471"
   style="fill:none;stroke:white;stroke-width:0.19200176;stroke-miterlimit:3.86400008" />
<polyline
   clip-rule="evenodd"
   points="94.321,36.654 63.036,21.885 73.255,0.242 104.54,15.01   94.321,36.654 "
   id="polyline2473"
   transform="translate(2,0)"
   style="fill:#ef4034;fill-rule:evenodd" />
<polyline
   clip-rule="evenodd"
   points="76.919,28.462 71.42,25.865 81.665,4.162 87.166,6.758   76.919,28.462 "
   id="polyline2475"
   transform="translate(2,0)"
   style="fill:white;fill-rule:evenodd" />
<polyline
   clip-rule="evenodd"
   points="98.157,28.598 66.787,13.789 69.312,8.438   100.684,23.248 98.157,28.598 "
   id="polyline2477"
   transform="translate(2,0)"
   style="fill:white;fill-rule:evenodd" />
<polyline
   clip-rule="evenodd"
   points="75.48,27.757 72.796,26.49 83.012,4.847 85.697,6.116   75.48,27.757 "
   id="polyline2479"
   transform="translate(2,0)"
   style="fill:#1f3c73;fill-rule:evenodd" />
<polyline
   clip-rule="evenodd"
   points="98.833,27.167 67.504,12.379 68.701,9.852 100.025,24.64   98.833,27.167 "
   id="polyline2481"
   transform="translate(2,0)"
   style="fill:#1f3c73;fill-rule:evenodd" />
<polyline
   clip-rule="evenodd"
   points="102.166,69.953 94.314,36.714 117.909,31.139   125.764,64.379 102.166,69.953 "
   id="polyline2483"
   transform="translate(2,0)"
   style="fill:#ec212f;fill-rule:evenodd" />
<polyline
   clip-rule="evenodd"
   points="103.225,54.531 102.194,50.168 116.702,46.743   117.732,51.104 103.225,54.531 "
   id="polyline2485"
   transform="translate(2,0)"
   style="fill:white;fill-rule:evenodd" />
<polyline
   clip-rule="evenodd"
   points="109.468,58.388 106.05,43.926 110.456,42.886   113.875,57.346 109.468,58.388 "
   id="polyline2487"
   transform="translate(2,0)"
   style="fill:white;fill-rule:evenodd" />
<polyline
   clip-rule="evenodd"
   points="32.054,36.523 23.815,69.971 0.393,64.203 8.633,30.754   32.054,36.523 "
   id="polyline2489"
   transform="translate(2,0)"
   style="fill:#00539b;fill-rule:evenodd" />
<polyline
   clip-rule="evenodd"
   points="32.054,36.523 23.815,69.971 0.393,64.203 8.633,30.754   32.054,36.523 "
   id="polyline2491"
   transform="translate(2,0)"
   style="fill:#00539b;fill-rule:evenodd" />
<polyline
   clip-rule="evenodd"
   points="27.33,55.659 26.038,60.906 2.582,55.128 3.874,49.882   27.33,55.659 "
   id="polyline2493"
   transform="translate(2,0)"
   style="fill:white;fill-rule:evenodd" />
<polyline
   clip-rule="evenodd"
   points="22.968,34.257 14.707,67.799 9.46,66.504 17.721,32.965   22.968,34.257 "
   id="polyline2495"
   transform="translate(2,0)"
   style="fill:white;fill-rule:evenodd" />
<polyline
   clip-rule="evenodd"
   points="27.014,56.938 26.374,59.536 2.964,53.771 3.605,51.171   27.014,56.938 "
   id="polyline2497"
   transform="translate(2,0)"
   style="fill:#ed3826;fill-rule:evenodd" />
<polyline
   clip-rule="evenodd"
   points="21.689,33.943 13.442,67.436 10.887,66.806   19.135,33.313 21.689,33.943 "
   id="polyline2499"
   transform="translate(2,0)"
   style="fill:#ed3826;fill-rule:evenodd" />
<polyline
   points="31.958,49.855 47.379,49.855 47.379,52.817 35.709,52.817 35.709,57.95 46.509,57.95   46.509,60.747 35.709,60.747 35.709,66.484 47.589,66.484 47.589,69.448 31.958,69.448 31.958,49.855 "
   id="polyline2501"
   transform="translate(2,0)"
   style="fill:#231f20" />
<polygon
   points="31.958,49.855 47.379,49.855 47.379,52.817 35.709,52.817 35.709,57.95 46.509,57.95 46.509,60.747 35.709,60.747 35.709,66.484 47.589,66.484 47.589,69.448 31.958,69.448 31.958,49.855 "
   id="polygon2503"
   transform="translate(2,0)"
   style="fill:none;stroke:#231f20;stroke-width:0.57300001" />
<polyline
   points="49.563,49.855 63.979,49.855 63.979,52.821 53.217,52.821 53.217,57.961 62.661,57.961   62.661,60.762 53.217,60.762 53.217,69.473 49.563,69.473 49.563,49.855 "
   id="polyline2505"
   transform="translate(2,0)"
   style="fill:#231f20" />
<polygon
   points="49.563,49.855 63.979,49.855 63.979,52.821 53.217,52.821 53.217,57.961 62.661,57.961 62.661,60.762 53.217,60.762 53.217,69.473 49.563,69.473 49.563,49.855 "
   id="polygon2507"
   transform="translate(2,0)"
   style="fill:none;stroke:#231f20;stroke-width:0.574" />
<polyline
   points="66.108,49.855 82.798,49.855 82.798,52.817 76.244,52.817 76.244,69.448 72.633,69.448   72.633,52.817 66.108,52.817 66.108,49.855 "
   id="polyline2509"
   transform="translate(2,0)"
   style="fill:#231f20" />
<polygon
   points="66.108,49.855 82.798,49.855 82.798,52.817 76.244,52.817 76.244,69.448 72.633,69.448 72.633,52.817 66.108,52.817 66.108,49.855 "
   id="polygon2511"
   transform="translate(2,0)"
   style="fill:none;stroke:#231f20;stroke-width:0.57499999" />
<path
   d="M 87.982,61.679 L 93.664,61.679 L 90.876,53.237 L 90.796,53.237 L 87.982,61.679 M 89.131,49.855 L 92.596,49.855 L 99.76,69.487 L 96.27,69.487 L 94.523,64.289 L 87.1,64.289 L 85.352,69.487 L 81.992,69.487 L 89.131,49.855 z "
   id="path2513"
   style="fill:#231f20" />
<path
   d="M 87.982,61.679 L 93.664,61.679 L 90.876,53.237 L 90.796,53.237 L 87.982,61.679 z M 89.131,49.855 L 92.596,49.855 L 99.76,69.487 L 96.27,69.487 L 94.523,64.289 L 87.1,64.289 L 85.352,69.487 L 81.992,69.487 L 89.131,49.855 z "
   id="path2515"
   style="fill:none;stroke:#231f20;stroke-width:0.579" />
<polyline
   clip-rule="evenodd"
   points="32.079,36.547 21.565,15.051 52.428,0.381 62.943,21.877   32.079,36.547 "
   id="polyline2517"
   transform="translate(2,0)"
   style="fill:#065ca9;fill-rule:evenodd" />
<polyline
   clip-rule="evenodd"
   points="32.079,36.547 26.821,25.799 57.684,11.13 62.942,21.877   32.079,36.547 "
   id="polyline2519"
   transform="translate(2,0)"
   style="fill:#ef4034;fill-rule:evenodd" />
<path
   d="M 31.833,17.801 C 31.833,17.801 31.214,18.048 31.535,18.833 C 31.538,18.837 30.888,18.391 30.434,18.58 C 30.437,18.588 29.858,18.833 30.32,19.487 C 30.329,19.49 29.851,19.163 29.498,19.357 C 29.502,19.363 29.18,19.508 29.083,19.78 C 29.083,19.78 29.429,19.893 29.781,20.205 C 29.797,20.215 30.203,20.646 30.657,20.843 C 30.665,20.839 31.467,20.109 32.72,19.465 C 33.967,18.806 35.074,18.655 35.08,18.652 C 35.158,18.195 35.113,17.713 35.111,17.695 C 35.05,17.231 35.246,16.737 35.246,16.737 C 34.932,16.603 34.405,16.976 34.4,16.969 C 34.043,17.147 34.076,17.553 34.078,17.543 C 33.788,16.797 33.408,17.104 33.404,17.098 C 32.852,17.356 32.89,18.187 32.887,18.18 C 32.373,17.472 31.833,17.801 31.833,17.801"
   id="path2521"
   style="fill:#ffcb0b" />
<path
   d="M 31.664,16.587 C 31.664,16.587 32.018,16.28 32.399,15.978 C 32.399,15.978 32.993,15.548 33.462,15.524 C 33.462,15.524 34.02,15.484 34.308,16.037 C 34.31,16.043 34.472,16.346 34.519,16.774 C 34.507,16.789 34.371,16.859 34.286,16.99 C 34.286,16.99 34.309,16.527 34.096,16.127 C 34.099,16.115 33.884,15.7 33.421,15.738 C 33.406,15.726 33.032,15.721 32.476,16.13 C 32.469,16.135 32.082,16.433 31.758,16.728 C 31.751,16.732 31.664,16.587 31.664,16.587"
   id="path2523"
   style="fill:#ffcb0b" />
<path
   d="M 30.939,16.954 C 30.939,16.954 30.465,17.026 29.994,17.158 C 29.994,17.158 29.296,17.387 29.002,17.75 C 29.002,17.75 28.648,18.178 28.938,18.727 C 28.942,18.735 29.1,19.039 29.428,19.324 C 29.446,19.321 29.583,19.255 29.742,19.262 C 29.742,19.262 29.344,19.013 29.138,18.611 C 29.126,18.606 28.904,18.194 29.202,17.843 C 29.202,17.824 29.415,17.521 30.075,17.309 C 30.082,17.304 30.579,17.184 31.011,17.093 C 31.021,17.089 30.939,16.954 30.939,16.954"
   id="path2525"
   style="fill:#ffcb0b" />
<polyline
   points="28.558,15.255 28.594,14.865 28.264,14.714 28.211,15.04 28.558,15.255 "
   id="polyline2527"
   transform="translate(2,0)"
   style="fill:#ffcb0b" />
<polygon
   stroke-miterlimit="3.864"
   points="28.558,15.255 28.594,14.865 28.264,14.714 28.211,15.04 28.558,15.255 "
   id="polygon2529"
   transform="translate(2,0)"
   style="fill:none;stroke:#065ca9;stroke-width:0.05;stroke-miterlimit:3.86400008" />
<path
   d="M 29.038,19.395 C 28.996,19.314 29.027,19.216 29.11,19.176 C 29.191,19.134 29.292,19.167 29.333,19.247 C 29.375,19.328 29.342,19.427 29.26,19.469 C 29.179,19.508 29.078,19.476 29.038,19.395"
   id="path2531"
   style="fill:#ffcb0b" />
<circle
   stroke-miterlimit="3.864"
   cx="27.184999"
   cy="19.320999"
   r="0.16500001"
   id="circle2533"
   sodipodi:cx="27.184999"
   sodipodi:cy="19.320999"
   sodipodi:rx="0.16500001"
   sodipodi:ry="0.16500001"
   transform="translate(2,0)"
   style="fill:none;stroke:#065ca9;stroke-width:0.05;stroke-miterlimit:3.86400008" />
<path
   d="M 28.783,19.114 C 28.742,19.032 28.775,18.935 28.856,18.894 C 28.937,18.853 29.038,18.884 29.078,18.966 C 29.12,19.048 29.087,19.145 29.005,19.184 C 28.923,19.225 28.824,19.194 28.783,19.114"
   id="path2535"
   style="fill:#ffcb0b" />
<circle
   stroke-miterlimit="3.864"
   cx="26.93"
   cy="19.040001"
   r="0.16500001"
   id="circle2537"
   sodipodi:cx="26.93"
   sodipodi:cy="19.040001"
   sodipodi:rx="0.16500001"
   sodipodi:ry="0.16500001"
   transform="translate(2,0)"
   style="fill:none;stroke:#065ca9;stroke-width:0.05;stroke-miterlimit:3.86400008" />
<path
   d="M 28.607,18.77 C 28.565,18.688 28.598,18.59 28.679,18.55 C 28.761,18.508 28.861,18.542 28.903,18.622 C 28.944,18.703 28.912,18.801 28.828,18.842 C 28.746,18.881 28.647,18.849 28.607,18.77"
   id="path2539"
   style="fill:#ffcb0b" />
<circle
   stroke-miterlimit="3.864"
   cx="26.754999"
   cy="18.695999"
   r="0.16500001"
   id="circle2541"
   sodipodi:cx="26.754999"
   sodipodi:cy="18.695999"
   sodipodi:rx="0.16500001"
   sodipodi:ry="0.16500001"
   transform="translate(2,0)"
   style="fill:none;stroke:#065ca9;stroke-width:0.05;stroke-miterlimit:3.86400008" />
<path
   d="M 28.522,18.377 C 28.482,18.298 28.513,18.198 28.596,18.157 C 28.677,18.116 28.778,18.15 28.818,18.229 C 28.86,18.309 28.825,18.41 28.744,18.449 C 28.664,18.491 28.564,18.457 28.522,18.377"
   id="path2543"
   style="fill:#ffcb0b" />
<circle
   stroke-miterlimit="3.864"
   cx="26.67"
   cy="18.302999"
   r="0.16599999"
   id="circle2545"
   sodipodi:cx="26.67"
   sodipodi:cy="18.302999"
   sodipodi:rx="0.16599999"
   sodipodi:ry="0.16599999"
   transform="translate(2,0)"
   style="fill:none;stroke:#065ca9;stroke-width:0.05;stroke-miterlimit:3.86400008" />
<path
   d="M 28.534,18.005 C 28.492,17.924 28.526,17.827 28.607,17.787 C 28.689,17.744 28.789,17.779 28.829,17.857 C 28.871,17.939 28.84,18.036 28.755,18.077 C 28.676,18.119 28.575,18.085 28.534,18.005"
   id="path2547"
   style="fill:#ffcb0b" />
<circle
   stroke-miterlimit="3.864"
   cx="26.681999"
   cy="17.931"
   r="0.16500001"
   id="circle2549"
   sodipodi:cx="26.681999"
   sodipodi:cy="17.931"
   sodipodi:rx="0.16500001"
   sodipodi:ry="0.16500001"
   transform="translate(2,0)"
   style="fill:none;stroke:#065ca9;stroke-width:0.05;stroke-miterlimit:3.86400008" />
<path
   d="M 28.748,17.649 C 28.706,17.567 28.741,17.47 28.82,17.429 C 28.903,17.387 29.003,17.42 29.046,17.499 C 29.085,17.58 29.052,17.679 28.971,17.721 C 28.889,17.762 28.79,17.729 28.748,17.649"
   id="path2551"
   style="fill:#ffcb0b" />
<path
   stroke-miterlimit="3.864"
   d="M 28.748,17.649 C 28.706,17.567 28.741,17.47 28.82,17.429 C 28.903,17.387 29.003,17.42 29.046,17.499 C 29.085,17.58 29.052,17.679 28.971,17.721 C 28.889,17.762 28.79,17.729 28.748,17.649 z "
   id="path2553"
   style="fill:none;stroke:#065ca9;stroke-width:0.05;stroke-miterlimit:3.86400008" />
<path
   d="M 29.047,17.374 C 29.005,17.294 29.038,17.194 29.121,17.154 C 29.201,17.114 29.301,17.146 29.342,17.228 C 29.384,17.306 29.353,17.406 29.268,17.447 C 29.187,17.488 29.087,17.456 29.047,17.374"
   id="path2555"
   style="fill:#ffcb0b" />
<path
   stroke-miterlimit="3.864"
   d="M 29.047,17.374 C 29.005,17.294 29.038,17.194 29.121,17.154 C 29.201,17.114 29.301,17.146 29.342,17.228 C 29.384,17.306 29.353,17.406 29.268,17.447 C 29.187,17.488 29.087,17.456 29.047,17.374 z "
   id="path2557"
   style="fill:none;stroke:#065ca9;stroke-width:0.05;stroke-miterlimit:3.86400008" />
<path
   d="M 29.389,17.187 C 29.348,17.107 29.38,17.008 29.462,16.968 C 29.545,16.927 29.643,16.96 29.686,17.038 C 29.726,17.12 29.693,17.218 29.612,17.258 C 29.529,17.299 29.432,17.268 29.389,17.187"
   id="path2559"
   style="fill:#ffcb0b" />
<circle
   stroke-miterlimit="3.864"
   cx="27.537001"
   cy="17.113001"
   r="0.16599999"
   id="circle2561"
   sodipodi:cx="27.537001"
   sodipodi:cy="17.113001"
   sodipodi:rx="0.16599999"
   sodipodi:ry="0.16599999"
   transform="translate(2,0)"
   style="fill:none;stroke:#065ca9;stroke-width:0.05;stroke-miterlimit:3.86400008" />
<path
   d="M 29.753,17.039 C 29.711,16.959 29.744,16.859 29.825,16.819 C 29.907,16.779 30.007,16.811 30.048,16.892 C 30.09,16.973 30.057,17.069 29.975,17.111 C 29.893,17.152 29.793,17.12 29.753,17.039"
   id="path2563"
   style="fill:#ffcb0b" />
<circle
   stroke-miterlimit="3.864"
   cx="27.9"
   cy="16.965"
   r="0.164"
   id="circle2565"
   sodipodi:cx="27.9"
   sodipodi:cy="16.965"
   sodipodi:rx="0.164"
   sodipodi:ry="0.164"
   transform="translate(2,0)"
   style="fill:none;stroke:#065ca9;stroke-width:0.05;stroke-miterlimit:3.86400008" />
<path
   d="M 30.099,16.908 C 30.058,16.827 30.09,16.727 30.171,16.688 C 30.254,16.646 30.353,16.679 30.395,16.76 C 30.436,16.841 30.404,16.939 30.323,16.98 C 30.239,17.02 30.141,16.989 30.099,16.908"
   id="path2567"
   style="fill:#ffcb0b" />
<circle
   stroke-miterlimit="3.864"
   cx="28.246"
   cy="16.834"
   r="0.16500001"
   id="circle2569"
   sodipodi:cx="28.246"
   sodipodi:cy="16.834"
   sodipodi:rx="0.16500001"
   sodipodi:ry="0.16500001"
   transform="translate(2,0)"
   style="fill:none;stroke:#065ca9;stroke-width:0.05;stroke-miterlimit:3.86400008" />
<path
   d="M 30.443,16.819 C 30.401,16.739 30.432,16.642 30.516,16.6 C 30.598,16.558 30.696,16.592 30.737,16.673 C 30.779,16.754 30.746,16.851 30.665,16.892 C 30.583,16.933 30.483,16.9 30.443,16.819"
   id="path2571"
   style="fill:#ffcb0b" />
<circle
   stroke-miterlimit="3.864"
   cx="28.59"
   cy="16.746"
   r="0.164"
   id="circle2573"
   sodipodi:cx="28.59"
   sodipodi:cy="16.746"
   sodipodi:rx="0.164"
   sodipodi:ry="0.164"
   transform="translate(2,0)"
   style="fill:none;stroke:#065ca9;stroke-width:0.05;stroke-miterlimit:3.86400008" />
<path
   d="M 30.773,16.805 C 30.731,16.724 30.764,16.626 30.845,16.587 C 30.926,16.545 31.027,16.577 31.067,16.657 C 31.107,16.737 31.074,16.837 30.993,16.877 C 30.912,16.917 30.812,16.887 30.773,16.805"
   id="path2575"
   style="fill:#ffcb0b" />
<circle
   stroke-miterlimit="3.864"
   cx="28.92"
   cy="16.731001"
   r="0.16500001"
   id="circle2577"
   sodipodi:cx="28.92"
   sodipodi:cy="16.731001"
   sodipodi:rx="0.16500001"
   sodipodi:ry="0.16500001"
   transform="translate(2,0)"
   style="fill:none;stroke:#065ca9;stroke-width:0.05;stroke-miterlimit:3.86400008" />
<path
   d="M 31.332,16.468 C 31.291,16.386 31.323,16.289 31.405,16.248 C 31.488,16.207 31.585,16.238 31.628,16.319 C 31.67,16.401 31.637,16.499 31.556,16.537 C 31.474,16.581 31.374,16.548 31.332,16.468"
   id="path2579"
   style="fill:#ffcb0b" />
<path
   stroke-miterlimit="3.864"
   d="M 31.332,16.468 C 31.291,16.386 31.323,16.289 31.405,16.248 C 31.488,16.207 31.585,16.238 31.628,16.319 C 31.67,16.401 31.637,16.499 31.556,16.537 C 31.474,16.581 31.374,16.548 31.332,16.468 z "
   id="path2581"
   style="fill:none;stroke:#065ca9;stroke-width:0.05;stroke-miterlimit:3.86400008" />
<path
   d="M 31.598,16.244 C 31.557,16.164 31.587,16.063 31.672,16.024 C 31.753,15.984 31.852,16.015 31.894,16.097 C 31.936,16.178 31.902,16.275 31.82,16.315 C 31.739,16.356 31.638,16.323 31.598,16.244"
   id="path2583"
   style="fill:#ffcb0b" />
<circle
   stroke-miterlimit="3.864"
   cx="29.746"
   cy="16.17"
   r="0.16500001"
   id="circle2585"
   sodipodi:cx="29.746"
   sodipodi:cy="16.17"
   sodipodi:rx="0.16500001"
   sodipodi:ry="0.16500001"
   transform="translate(2,0)"
   style="fill:none;stroke:#065ca9;stroke-width:0.05;stroke-miterlimit:3.86400008" />
<path
   d="M 31.87,15.999 C 31.828,15.918 31.861,15.822 31.942,15.779 C 32.025,15.739 32.124,15.771 32.165,15.853 C 32.207,15.933 32.174,16.032 32.093,16.072 C 32.009,16.111 31.912,16.079 31.87,15.999"
   id="path2587"
   style="fill:#ffcb0b" />
<circle
   stroke-miterlimit="3.864"
   cx="30.017"
   cy="15.926"
   r="0.164"
   id="circle2589"
   sodipodi:cx="30.017"
   sodipodi:cy="15.926"
   sodipodi:rx="0.164"
   sodipodi:ry="0.164"
   transform="translate(2,0)"
   style="fill:none;stroke:#065ca9;stroke-width:0.05;stroke-miterlimit:3.86400008" />
<path
   d="M 32.167,15.808 C 32.126,15.73 32.159,15.63 32.24,15.589 C 32.323,15.548 32.42,15.581 32.462,15.663 C 32.504,15.743 32.471,15.842 32.39,15.881 C 32.31,15.922 32.209,15.89 32.167,15.808"
   id="path2591"
   style="fill:#ffcb0b" />
<path
   stroke-miterlimit="3.864"
   d="M 32.167,15.808 C 32.126,15.73 32.159,15.63 32.24,15.589 C 32.323,15.548 32.42,15.581 32.462,15.663 C 32.504,15.743 32.471,15.842 32.39,15.881 C 32.31,15.922 32.209,15.89 32.167,15.808 z "
   id="path2593"
   style="fill:none;stroke:#065ca9;stroke-width:0.05;stroke-miterlimit:3.86400008" />
<path
   d="M 32.471,15.608 C 32.43,15.528 32.462,15.43 32.543,15.388 C 32.626,15.348 32.725,15.38 32.767,15.461 C 32.808,15.541 32.775,15.64 32.695,15.68 C 32.61,15.721 32.511,15.688 32.471,15.608"
   id="path2595"
   style="fill:#ffcb0b" />
<path
   stroke-miterlimit="3.864"
   d="M 32.471,15.608 C 32.43,15.528 32.462,15.43 32.543,15.388 C 32.626,15.348 32.725,15.38 32.767,15.461 C 32.808,15.541 32.775,15.64 32.695,15.68 C 32.61,15.721 32.511,15.688 32.471,15.608 z "
   id="path2597"
   style="fill:none;stroke:#065ca9;stroke-width:0.05;stroke-miterlimit:3.86400008" />
<path
   d="M 32.83,15.438 C 32.788,15.357 32.821,15.259 32.904,15.218 C 32.985,15.178 33.084,15.209 33.126,15.29 C 33.167,15.371 33.135,15.469 33.052,15.509 C 32.971,15.549 32.87,15.517 32.83,15.438"
   id="path2599"
   style="fill:#ffcb0b" />
<circle
   stroke-miterlimit="3.864"
   cx="30.978001"
   cy="15.364"
   r="0.16500001"
   id="circle2601"
   sodipodi:cx="30.978001"
   sodipodi:cy="15.364"
   sodipodi:rx="0.16500001"
   sodipodi:ry="0.16500001"
   transform="translate(2,0)"
   style="fill:none;stroke:#065ca9;stroke-width:0.05;stroke-miterlimit:3.86400008" />
<path
   d="M 33.225,15.397 C 33.181,15.317 33.216,15.218 33.297,15.178 C 33.378,15.138 33.477,15.171 33.519,15.249 C 33.56,15.331 33.528,15.428 33.445,15.468 C 33.366,15.511 33.265,15.479 33.225,15.397"
   id="path2603"
   style="fill:#ffcb0b" />
<circle
   stroke-miterlimit="3.864"
   cx="31.372"
   cy="15.324"
   r="0.164"
   id="circle2605"
   sodipodi:cx="31.372"
   sodipodi:cy="15.324"
   sodipodi:rx="0.164"
   sodipodi:ry="0.164"
   transform="translate(2,0)"
   style="fill:none;stroke:#065ca9;stroke-width:0.05;stroke-miterlimit:3.86400008" />
<path
   d="M 33.611,15.415 C 33.569,15.333 33.602,15.235 33.685,15.195 C 33.766,15.153 33.867,15.186 33.909,15.266 C 33.95,15.346 33.917,15.446 33.835,15.486 C 33.752,15.527 33.653,15.495 33.611,15.415"
   id="path2607"
   style="fill:#ffcb0b" />
<circle
   stroke-miterlimit="3.864"
   cx="31.76"
   cy="15.34"
   r="0.16599999"
   id="circle2609"
   sodipodi:cx="31.76"
   sodipodi:cy="15.34"
   sodipodi:rx="0.16599999"
   sodipodi:ry="0.16599999"
   transform="translate(2,0)"
   style="fill:none;stroke:#065ca9;stroke-width:0.05;stroke-miterlimit:3.86400008" />
<path
   d="M 33.979,15.603 C 33.937,15.522 33.972,15.423 34.052,15.382 C 34.134,15.342 34.233,15.375 34.274,15.455 C 34.316,15.536 34.283,15.635 34.202,15.675 C 34.12,15.716 34.02,15.684 33.979,15.603"
   id="path2611"
   style="fill:#ffcb0b" />
<circle
   stroke-miterlimit="3.864"
   cx="32.125999"
   cy="15.529"
   r="0.16500001"
   id="circle2613"
   sodipodi:cx="32.125999"
   sodipodi:cy="15.529"
   sodipodi:rx="0.16500001"
   sodipodi:ry="0.16500001"
   transform="translate(2,0)"
   style="fill:none;stroke:#065ca9;stroke-width:0.05;stroke-miterlimit:3.86400008" />
<path
   d="M 34.224,15.897 C 34.183,15.818 34.213,15.721 34.296,15.678 C 34.379,15.637 34.479,15.671 34.52,15.751 C 34.561,15.832 34.529,15.929 34.446,15.971 C 34.365,16.011 34.266,15.979 34.224,15.897"
   id="path2615"
   style="fill:#ffcb0b" />
<circle
   stroke-miterlimit="3.864"
   cx="32.372002"
   cy="15.824"
   r="0.16500001"
   id="circle2617"
   sodipodi:cx="32.372002"
   sodipodi:cy="15.824"
   sodipodi:rx="0.16500001"
   sodipodi:ry="0.16500001"
   transform="translate(2,0)"
   style="fill:none;stroke:#065ca9;stroke-width:0.05;stroke-miterlimit:3.86400008" />
<path
   d="M 34.402,16.234 C 34.363,16.153 34.395,16.054 34.477,16.014 C 34.558,15.973 34.657,16.005 34.698,16.086 C 34.74,16.166 34.709,16.265 34.626,16.305 C 34.545,16.346 34.444,16.313 34.402,16.234"
   id="path2619"
   style="fill:#ffcb0b" />
<circle
   stroke-miterlimit="3.864"
   cx="32.549999"
   cy="16.16"
   r="0.16500001"
   id="circle2621"
   sodipodi:cx="32.549999"
   sodipodi:cy="16.16"
   sodipodi:rx="0.16500001"
   sodipodi:ry="0.16500001"
   transform="translate(2,0)"
   style="fill:none;stroke:#065ca9;stroke-width:0.05;stroke-miterlimit:3.86400008" />
<path
   d="M 34.52,16.592 C 34.479,16.51 34.513,16.412 34.594,16.371 C 34.676,16.333 34.775,16.364 34.818,16.445 C 34.857,16.525 34.825,16.624 34.744,16.664 C 34.661,16.705 34.562,16.673 34.52,16.592"
   id="path2623"
   style="fill:#ffcb0b" />
<circle
   stroke-miterlimit="3.864"
   cx="32.667999"
   cy="16.518999"
   r="0.16599999"
   id="circle2625"
   sodipodi:cx="32.667999"
   sodipodi:cy="16.518999"
   sodipodi:rx="0.16599999"
   sodipodi:ry="0.16599999"
   transform="translate(2,0)"
   style="fill:none;stroke:#065ca9;stroke-width:0.05;stroke-miterlimit:3.86400008" />
<path
   d="M 31.64,17.704 C 31.604,17.633 31.633,17.544 31.706,17.507 C 31.779,17.471 31.87,17.499 31.906,17.573 C 31.945,17.644 31.915,17.733 31.84,17.77 C 31.768,17.806 31.678,17.777 31.64,17.704"
   id="path2627"
   style="fill:#ffcb0b" />
<circle
   stroke-miterlimit="3.864"
   cx="29.773001"
   cy="17.638"
   r="0.148"
   id="circle2629"
   sodipodi:cx="29.773001"
   sodipodi:cy="17.638"
   sodipodi:rx="0.148"
   sodipodi:ry="0.148"
   transform="translate(2,0)"
   style="fill:none;stroke:#065ca9;stroke-width:0.045;stroke-miterlimit:3.86400008" />
<path
   d="M 31.511,17.437 C 31.476,17.371 31.502,17.291 31.57,17.259 C 31.634,17.227 31.716,17.251 31.749,17.318 C 31.782,17.382 31.757,17.462 31.69,17.494 C 31.624,17.528 31.544,17.5 31.511,17.437"
   id="path2631"
   style="fill:#ffcb0b" />
<circle
   stroke-miterlimit="3.864"
   cx="29.629"
   cy="17.377001"
   r="0.133"
   id="circle2633"
   sodipodi:cx="29.629"
   sodipodi:cy="17.377001"
   sodipodi:rx="0.133"
   sodipodi:ry="0.133"
   transform="translate(2,0)"
   style="fill:none;stroke:#065ca9;stroke-width:0.04;stroke-miterlimit:3.86400008" />
<path
   d="M 31.38,17.158 C 31.351,17.101 31.374,17.032 31.431,17.004 C 31.489,16.977 31.559,17 31.587,17.055 C 31.616,17.112 31.593,17.18 31.536,17.209 C 31.479,17.236 31.41,17.214 31.38,17.158"
   id="path2635"
   style="fill:#ffcb0b" />
<circle
   stroke-miterlimit="3.864"
   cx="29.483"
   cy="17.106001"
   r="0.116"
   id="circle2637"
   sodipodi:cx="29.483"
   sodipodi:cy="17.106001"
   sodipodi:rx="0.116"
   sodipodi:ry="0.116"
   transform="translate(2,0)"
   style="fill:none;stroke:#065ca9;stroke-width:0.035;stroke-miterlimit:3.86400008" />
<path
   d="M 31.252,16.889 C 31.228,16.842 31.248,16.782 31.295,16.759 C 31.346,16.734 31.405,16.755 31.43,16.802 C 31.454,16.849 31.435,16.909 31.385,16.934 C 31.338,16.957 31.278,16.939 31.252,16.889"
   id="path2639"
   style="fill:#ffcb0b" />
<circle
   stroke-miterlimit="3.864"
   cx="29.341"
   cy="16.846001"
   r="0.098999999"
   id="circle2641"
   sodipodi:cx="29.341"
   sodipodi:cy="16.846001"
   sodipodi:rx="0.098999999"
   sodipodi:ry="0.098999999"
   transform="translate(2,0)"
   style="fill:none;stroke:#065ca9;stroke-width:0.03;stroke-miterlimit:3.86400008" />
<path
   d="M 31.153,16.657 C 31.13,16.615 31.147,16.566 31.188,16.547 C 31.228,16.528 31.279,16.543 31.3,16.584 C 31.319,16.624 31.303,16.673 31.262,16.694 C 31.224,16.714 31.172,16.697 31.153,16.657"
   id="path2643"
   style="fill:#ffcb0b" />
<circle
   stroke-miterlimit="3.864"
   cx="29.226999"
   cy="16.621"
   r="0.082000002"
   id="circle2645"
   sodipodi:cx="29.226999"
   sodipodi:cy="16.621"
   sodipodi:rx="0.082000002"
   sodipodi:ry="0.082000002"
   transform="translate(2,0)"
   style="fill:none;stroke:#065ca9;stroke-width:0.025;stroke-miterlimit:3.86400008" />
<polyline
   points="28.717,15.31 28.847,15.027 29.169,15.065 29.003,15.332 28.717,15.31 "
   id="polyline2647"
   transform="translate(2,0)"
   style="fill:#ffcb0b" />
<polygon
   stroke-miterlimit="3.864"
   points="28.717,15.31 28.847,15.027 29.169,15.065 29.003,15.332 28.717,15.31 "
   id="polygon2649"
   transform="translate(2,0)"
   style="fill:none;stroke:#065ca9;stroke-width:0.05;stroke-miterlimit:3.86400008" />
<polyline
   points="28.046,15.643 28.175,15.362 28.5,15.4 28.333,15.667 28.046,15.643 "
   id="polyline2651"
   transform="translate(2,0)"
   style="fill:#ffcb0b" />
<polygon
   stroke-miterlimit="3.864"
   points="28.046,15.643 28.175,15.362 28.5,15.4 28.333,15.667 28.046,15.643 "
   id="polygon2653"
   transform="translate(2,0)"
   style="fill:none;stroke:#065ca9;stroke-width:0.05;stroke-miterlimit:3.86400008" />
<polyline
   points="28.878,15.877 28.943,15.579 28.665,15.464 28.566,15.732 28.878,15.877 "
   id="polyline2655"
   transform="translate(2,0)"
   style="fill:#ffcb0b" />
<polygon
   stroke-miterlimit="3.864"
   points="28.878,15.877 28.943,15.579 28.665,15.464 28.566,15.732 28.878,15.877 "
   id="polygon2657"
   transform="translate(2,0)"
   style="fill:none;stroke:#065ca9;stroke-width:0.05;stroke-miterlimit:3.86400008" />
<path
   d="M 30.51,15.413 C 30.478,15.356 30.502,15.287 30.559,15.259 C 30.616,15.23 30.687,15.253 30.717,15.31 C 30.744,15.366 30.722,15.435 30.665,15.464 C 30.608,15.493 30.537,15.468 30.51,15.413"
   id="path2659"
   style="fill:#ffcb0b" />
<circle
   stroke-miterlimit="3.864"
   cx="28.614"
   cy="15.361"
   r="0.116"
   id="circle2661"
   sodipodi:cx="28.614"
   sodipodi:cy="15.361"
   sodipodi:rx="0.116"
   sodipodi:ry="0.116"
   transform="translate(2,0)"
   style="fill:none;stroke:#065ca9;stroke-width:0.035;stroke-miterlimit:3.86400008" />
<path
   d="M 30.708,16.329 C 30.621,16.164 30.688,15.957 30.858,15.873 C 31.028,15.789 31.235,15.856 31.319,16.024 C 31.406,16.19 31.339,16.395 31.169,16.478 C 31,16.563 30.792,16.496 30.708,16.329"
   id="path2663"
   style="fill:#ffcb0b" />
<path
   stroke-miterlimit="3.864"
   d="M 30.708,16.329 L 31.319,16.024 L 31.236,15.922 L 31,15.992 L 30.91,15.848 L 30.904,15.833 L 30.802,15.886 L 30.866,16.075 L 30.656,16.195 M 30.708,16.329 C 30.621,16.164 30.688,15.957 30.858,15.873 C 31.028,15.789 31.235,15.856 31.319,16.024 C 31.406,16.19 31.339,16.395 31.169,16.478 C 31,16.563 30.792,16.496 30.708,16.329 z "
   id="path2665"
   style="fill:none;stroke:#065ca9;stroke-width:0.047;stroke-miterlimit:3.86400008" />
<path
   d="M 32.002,17.088 C 32.002,17.088 31.768,16.631 32.502,16.185 C 32.493,16.188 33.215,15.662 33.689,15.868 C 33.696,15.864 33.932,15.962 34.041,16.214 C 34.038,16.225 34.191,16.493 34.119,16.9 C 34.107,16.896 34.065,17.225 33.704,17.042 C 33.71,17.031 33.273,16.845 33.025,17.36 C 33.025,17.36 32.836,17.899 32.459,17.638 C 32.466,17.636 32.218,17.466 32.002,17.088"
   id="path2667"
   style="fill:#ffcb0b" />
<g
   id="g2669"
   transform="translate(2,0)">
	<defs
   id="defs2671">
		<path
   id="XMLID_7_"
   d="M 30.002,17.088 C 30.002,17.088 29.768,16.631 30.502,16.185 C 30.493,16.188 31.215,15.662 31.689,15.868 C 31.696,15.864 31.932,15.962 32.041,16.214 C 32.038,16.225 32.191,16.493 32.119,16.9 C 32.107,16.896 32.065,17.225 31.704,17.042 C 31.71,17.031 31.273,16.845 31.025,17.36 C 31.025,17.36 30.836,17.899 30.459,17.638 C 30.466,17.636 30.218,17.466 30.002,17.088" />
	</defs>
	<clipPath
   id="XMLID_22_">
		<use
   xlink:href="#XMLID_7_"
   id="use2675"
   x="0"
   y="0"
   width="130.42799"
   height="100" />
	</clipPath>
	<polyline
   clip-path="url(#XMLID_22_)"
   points="29.901,16.393 29.839,16.422 30.493,17.811 30.555,17.782    29.901,16.393  "
   id="polyline2677"
   style="fill:#065ca9" />
	<polyline
   clip-path="url(#XMLID_22_)"
   points="30.059,16.32 29.997,16.35 30.678,17.801 30.739,17.771    30.059,16.32  "
   id="polyline2679"
   style="fill:#065ca9" />
	<polyline
   clip-path="url(#XMLID_22_)"
   points="30.217,16.25 30.153,16.279 30.833,17.722 30.894,17.692    30.217,16.25  "
   id="polyline2681"
   style="fill:#065ca9" />
	<polyline
   clip-path="url(#XMLID_22_)"
   points="30.375,16.177 30.312,16.207 30.965,17.595 31.026,17.568    30.375,16.177  "
   id="polyline2683"
   style="fill:#065ca9" />
	<polyline
   clip-path="url(#XMLID_22_)"
   points="30.531,16.105 30.468,16.136 31.121,17.523 31.183,17.494    30.531,16.105  "
   id="polyline2685"
   style="fill:#065ca9" />
	<polyline
   clip-path="url(#XMLID_22_)"
   points="30.688,16.035 30.625,16.062 31.278,17.451 31.342,17.423    30.688,16.035  "
   id="polyline2687"
   style="fill:#065ca9" />
	<polyline
   clip-path="url(#XMLID_22_)"
   points="30.844,15.962 30.783,15.989 31.435,17.379 31.498,17.352    30.844,15.962  "
   id="polyline2689"
   style="fill:#065ca9" />
	<polyline
   clip-path="url(#XMLID_22_)"
   points="31.002,15.891 30.941,15.919 31.594,17.308 31.656,17.278    31.002,15.891  "
   id="polyline2691"
   style="fill:#065ca9" />
	<polyline
   clip-path="url(#XMLID_22_)"
   points="31.159,15.819 31.097,15.849 31.75,17.236 31.812,17.208    31.159,15.819  "
   id="polyline2693"
   style="fill:#065ca9" />
	<polyline
   clip-path="url(#XMLID_22_)"
   points="31.316,15.749 31.254,15.776 31.908,17.164 31.972,17.137    31.316,15.749  "
   id="polyline2695"
   style="fill:#065ca9" />
	<polyline
   clip-path="url(#XMLID_22_)"
   points="31.474,15.674 31.412,15.703 32.064,17.092 32.128,17.064    31.474,15.674  "
   id="polyline2697"
   style="fill:#065ca9" />
	<polyline
   clip-path="url(#XMLID_22_)"
   points="31.63,15.603 31.568,15.631 32.222,17.021 32.285,16.993    31.63,15.603  "
   id="polyline2699"
   style="fill:#065ca9" />
</g>
<path
   d="M 31.209,17.544 C 31.209,17.544 30.982,17.083 30.177,17.388 C 30.186,17.385 29.322,17.631 29.2,18.128 C 29.192,18.131 29.129,18.376 29.266,18.613 C 29.278,18.615 29.4,18.899 29.774,19.088 C 29.777,19.077 30.07,19.243 30.139,18.851 C 30.129,18.847 30.243,18.392 30.807,18.512 C 30.807,18.512 31.357,18.689 31.375,18.236 C 31.368,18.238 31.383,17.942 31.209,17.544"
   id="path2701"
   style="fill:#ffcb0b" />
<g
   id="g2703"
   transform="translate(2,0)">
	<defs
   id="defs2705">
		<path
   id="XMLID_9_"
   d="M 29.209,17.544 C 29.209,17.544 28.982,17.083 28.177,17.388 C 28.186,17.385 27.322,17.631 27.2,18.128 C 27.192,18.131 27.129,18.376 27.266,18.613 C 27.278,18.615 27.4,18.899 27.774,19.088 C 27.777,19.077 28.07,19.243 28.139,18.851 C 28.129,18.847 28.243,18.392 28.807,18.512 C 28.807,18.512 29.357,18.689 29.375,18.236 C 29.368,18.238 29.383,17.942 29.209,17.544" />
	</defs>
	<clipPath
   id="XMLID_23_">
		<use
   xlink:href="#XMLID_9_"
   id="use2709"
   x="0"
   y="0"
   width="130.42799"
   height="100" />
	</clipPath>
	<polyline
   clip-path="url(#XMLID_23_)"
   points="28.708,17.043 28.77,17.013 29.496,18.366 29.434,18.396    28.708,17.043  "
   id="polyline2711"
   style="fill:#065ca9" />
	<polyline
   clip-path="url(#XMLID_23_)"
   points="28.554,17.124 28.614,17.092 29.372,18.505 29.313,18.539    28.554,17.124  "
   id="polyline2713"
   style="fill:#065ca9" />
	<polyline
   clip-path="url(#XMLID_23_)"
   points="28.402,17.203 28.462,17.172 29.216,18.579 29.156,18.61    28.402,17.203  "
   id="polyline2715"
   style="fill:#065ca9" />
	<polyline
   clip-path="url(#XMLID_23_)"
   points="28.249,17.283 28.311,17.251 29.035,18.605 28.974,18.637    28.249,17.283  "
   id="polyline2717"
   style="fill:#065ca9" />
	<polyline
   clip-path="url(#XMLID_23_)"
   points="28.096,17.364 28.156,17.331 28.881,18.685 28.821,18.717    28.096,17.364  "
   id="polyline2719"
   style="fill:#065ca9" />
	<polyline
   clip-path="url(#XMLID_23_)"
   points="27.942,17.444 28.004,17.411 28.728,18.767 28.668,18.797    27.942,17.444  "
   id="polyline2721"
   style="fill:#065ca9" />
	<polyline
   clip-path="url(#XMLID_23_)"
   points="27.788,17.523 27.849,17.491 28.576,18.845 28.515,18.875    27.788,17.523  "
   id="polyline2723"
   style="fill:#065ca9" />
	<polyline
   clip-path="url(#XMLID_23_)"
   points="27.636,17.602 27.696,17.571 28.421,18.925 28.361,18.956    27.636,17.602  "
   id="polyline2725"
   style="fill:#065ca9" />
	<polyline
   clip-path="url(#XMLID_23_)"
   points="27.482,17.682 27.544,17.651 28.27,19.003 28.208,19.037    27.482,17.682  "
   id="polyline2727"
   style="fill:#065ca9" />
	<polyline
   clip-path="url(#XMLID_23_)"
   points="27.328,17.762 27.389,17.731 28.115,19.085 28.055,19.116    27.328,17.762  "
   id="polyline2729"
   style="fill:#065ca9" />
	<polyline
   clip-path="url(#XMLID_23_)"
   points="27.176,17.842 27.236,17.81 27.961,19.163 27.901,19.195    27.176,17.842  "
   id="polyline2731"
   style="fill:#065ca9" />
	<polyline
   clip-path="url(#XMLID_23_)"
   points="27.021,17.921 27.083,17.892 27.809,19.245 27.748,19.274    27.021,17.921  "
   id="polyline2733"
   style="fill:#065ca9" />
</g>
<path
   d="M 32.27,17.665 C 32.27,17.665 31.876,17.21 31.516,16.61 L 31.429,16.66 C 31.429,16.66 31.692,17.118 32.097,17.639 C 32.108,17.642 32.134,17.629 32.27,17.665"
   id="path2735"
   style="fill:#ffcb0b" />
<path
   d="M 31.478,18.077 C 31.478,18.077 31.338,17.522 31.05,16.883 L 31.154,16.841 C 31.154,16.841 31.39,17.288 31.586,17.914 C 31.583,17.924 31.524,17.948 31.478,18.077"
   id="path2737"
   style="fill:#ffcb0b" />
<polyline
   points="29.785,18.763 29.626,18.588 29.637,18.686 29.785,18.763 "
   id="polyline2739"
   transform="translate(2,0)"
   style="fill:#065ca9" />
<polyline
   points="29.768,18.588 29.635,18.51 29.635,18.393 29.768,18.588 "
   id="polyline2741"
   transform="translate(2,0)"
   style="fill:#065ca9" />
<polyline
   points="29.796,18.44 29.67,18.328 29.702,18.23 29.796,18.44 "
   id="polyline2743"
   transform="translate(2,0)"
   style="fill:#065ca9" />
<polyline
   points="29.985,18.199 29.834,18.043 29.912,17.993 29.985,18.199 "
   id="polyline2745"
   transform="translate(2,0)"
   style="fill:#065ca9" />
<polyline
   points="29.164,18.9 29.019,18.755 29.102,18.75 29.164,18.9 "
   id="polyline2747"
   transform="translate(2,0)"
   style="fill:#065ca9" />
<polyline
   points="28.991,18.94 28.761,18.775 28.855,18.762 28.991,18.94 "
   id="polyline2749"
   transform="translate(2,0)"
   style="fill:#065ca9" />
<polyline
   points="28.834,18.946 28.696,18.789 28.612,18.827 28.834,18.946 "
   id="polyline2751"
   transform="translate(2,0)"
   style="fill:#065ca9" />
<polyline
   points="28.677,18.997 28.57,18.845 28.505,18.9 28.677,18.997 "
   id="polyline2753"
   transform="translate(2,0)"
   style="fill:#065ca9" />
<polyline
   points="28.608,19.091 28.476,18.936 28.444,19.006 28.608,19.091 "
   id="polyline2755"
   transform="translate(2,0)"
   style="fill:#065ca9" />
<polyline
   points="28.566,19.203 28.42,19.063 28.41,19.146 28.566,19.203 "
   id="polyline2757"
   transform="translate(2,0)"
   style="fill:#065ca9" />
<polyline
   points="28.536,19.375 28.361,19.235 28.369,19.325 28.536,19.375 "
   id="polyline2759"
   transform="translate(2,0)"
   style="fill:#065ca9" />
<polyline
   points="28.591,19.565 28.42,19.446 28.427,19.526 28.591,19.565 "
   id="polyline2761"
   transform="translate(2,0)"
   style="fill:#065ca9" />
<polyline
   points="28.124,19.708 28.055,19.587 27.96,19.579 28.124,19.708 "
   id="polyline2763"
   transform="translate(2,0)"
   style="fill:#065ca9" />
<polyline
   points="27.92,19.693 27.835,19.568 27.75,19.582 27.92,19.693 "
   id="polyline2765"
   transform="translate(2,0)"
   style="fill:#065ca9" />
<polyline
   points="27.767,19.717 27.651,19.583 27.556,19.615 27.767,19.717 "
   id="polyline2767"
   transform="translate(2,0)"
   style="fill:#065ca9" />
<polyline
   points="27.621,19.736 27.478,19.634 27.392,19.677 27.621,19.736 "
   id="polyline2769"
   transform="translate(2,0)"
   style="fill:#065ca9" />
<polyline
   points="27.541,19.787 27.351,19.712 27.293,19.775 27.541,19.787 "
   id="polyline2771"
   transform="translate(2,0)"
   style="fill:#065ca9" />
<polyline
   points="30.619,18.329 30.563,18.1 30.637,18.165 30.619,18.329 "
   id="polyline2773"
   transform="translate(2,0)"
   style="fill:#065ca9" />
<polyline
   points="30.481,18.214 30.488,18.062 30.391,17.998 30.481,18.214 "
   id="polyline2775"
   transform="translate(2,0)"
   style="fill:#065ca9" />
<polyline
   points="30.376,18.14 30.352,17.972 30.254,17.946 30.376,18.14 "
   id="polyline2777"
   transform="translate(2,0)"
   style="fill:#065ca9" />
<polyline
   points="30.087,18.145 30.041,17.934 29.957,17.97 30.087,18.145 "
   id="polyline2779"
   transform="translate(2,0)"
   style="fill:#065ca9" />
<polyline
   points="31.141,18.137 31.1,17.937 31.049,18.002 31.141,18.137 "
   id="polyline2781"
   transform="translate(2,0)"
   style="fill:#065ca9" />
<polyline
   points="31.19,17.996 31.183,17.715 31.117,17.785 31.19,17.996 "
   id="polyline2783"
   transform="translate(2,0)"
   style="fill:#065ca9" />
<polyline
   points="31.258,17.818 31.202,17.616 31.282,17.571 31.258,17.818 "
   id="polyline2785"
   transform="translate(2,0)"
   style="fill:#065ca9" />
<polyline
   points="31.36,17.666 31.294,17.491 31.376,17.471 31.36,17.666 "
   id="polyline2787"
   transform="translate(2,0)"
   style="fill:#065ca9" />
<polyline
   points="31.504,17.583 31.447,17.387 31.528,17.402 31.504,17.583 "
   id="polyline2789"
   transform="translate(2,0)"
   style="fill:#065ca9" />
<polyline
   points="31.65,17.529 31.615,17.334 31.689,17.371 31.65,17.529 "
   id="polyline2791"
   transform="translate(2,0)"
   style="fill:#065ca9" />
<polyline
   points="31.758,17.635 31.737,17.412 31.809,17.468 31.758,17.635 "
   id="polyline2793"
   transform="translate(2,0)"
   style="fill:#065ca9" />
<polyline
   points="31.883,17.787 31.879,17.579 31.943,17.631 31.883,17.787 "
   id="polyline2795"
   transform="translate(2,0)"
   style="fill:#065ca9" />
<polyline
   points="32.455,17.457 32.394,17.334 32.439,17.251 32.455,17.457 "
   id="polyline2797"
   transform="translate(2,0)"
   style="fill:#065ca9" />
<polyline
   points="32.533,17.335 32.478,17.198 32.536,17.134 32.533,17.335 "
   id="polyline2799"
   transform="translate(2,0)"
   style="fill:#065ca9" />
<polyline
   points="32.642,17.253 32.594,17.083 32.674,17.023 32.642,17.253 "
   id="polyline2801"
   transform="translate(2,0)"
   style="fill:#065ca9" />
<polyline
   points="32.739,17.145 32.734,16.97 32.819,16.925 32.739,17.145 "
   id="polyline2803"
   transform="translate(2,0)"
   style="fill:#065ca9" />
<polyline
   points="32.826,17.108 32.873,16.911 32.955,16.898 32.826,17.108 "
   id="polyline2805"
   transform="translate(2,0)"
   style="fill:#065ca9" />
<polyline
   points="30.404,19.427 30.504,19.652 30.542,19.561 30.404,19.427 "
   id="polyline2807"
   transform="translate(2,0)"
   style="fill:#065ca9" />
<polyline
   points="30.577,19.34 30.676,19.565 30.715,19.473 30.577,19.34 "
   id="polyline2809"
   transform="translate(2,0)"
   style="fill:#065ca9" />
<polyline
   points="30.725,19.247 30.825,19.473 30.861,19.38 30.725,19.247 "
   id="polyline2811"
   transform="translate(2,0)"
   style="fill:#065ca9" />
<polyline
   points="30.896,19.156 30.932,19.398 30.994,19.318 30.896,19.156 "
   id="polyline2813"
   transform="translate(2,0)"
   style="fill:#065ca9" />
<polyline
   points="31.069,19.074 31.106,19.317 31.167,19.237 31.069,19.074 "
   id="polyline2815"
   transform="translate(2,0)"
   style="fill:#065ca9" />
<polyline
   points="31.241,18.999 31.278,19.242 31.34,19.162 31.241,18.999 "
   id="polyline2817"
   transform="translate(2,0)"
   style="fill:#065ca9" />
<polyline
   points="31.412,18.94 31.45,19.183 31.51,19.104 31.412,18.94 "
   id="polyline2819"
   transform="translate(2,0)"
   style="fill:#065ca9" />
<polyline
   points="31.551,18.886 31.588,19.129 31.648,19.05 31.551,18.886 "
   id="polyline2821"
   transform="translate(2,0)"
   style="fill:#065ca9" />
<polyline
   points="31.689,18.818 31.728,19.062 31.79,18.983 31.689,18.818 "
   id="polyline2823"
   transform="translate(2,0)"
   style="fill:#065ca9" />
<polyline
   points="31.863,18.771 31.9,19.014 31.961,18.936 31.863,18.771 "
   id="polyline2825"
   transform="translate(2,0)"
   style="fill:#065ca9" />
<polyline
   points="32.022,18.714 32.06,18.958 32.122,18.878 32.022,18.714 "
   id="polyline2827"
   transform="translate(2,0)"
   style="fill:#065ca9" />
<polyline
   points="32.192,18.657 32.23,18.9 32.29,18.823 32.192,18.657 "
   id="polyline2829"
   transform="translate(2,0)"
   style="fill:#065ca9" />
<polyline
   points="32.328,18.625 32.365,18.867 32.427,18.789 32.328,18.625 "
   id="polyline2831"
   transform="translate(2,0)"
   style="fill:#065ca9" />
<polyline
   points="32.464,18.601 32.501,18.845 32.563,18.767 32.464,18.601 "
   id="polyline2833"
   transform="translate(2,0)"
   style="fill:#065ca9" />
<polyline
   points="32.607,18.566 32.645,18.809 32.706,18.729 32.607,18.566 "
   id="polyline2835"
   transform="translate(2,0)"
   style="fill:#065ca9" />
<polyline
   points="32.76,18.533 32.796,18.777 32.856,18.699 32.76,18.533 "
   id="polyline2837"
   transform="translate(2,0)"
   style="fill:#065ca9" />
<polyline
   points="32.93,18.5 32.966,18.745 33.028,18.666 32.93,18.5 "
   id="polyline2839"
   transform="translate(2,0)"
   style="fill:#065ca9" />
<polyline
   points="30.23,19.521 30.324,19.751 30.364,19.66 30.23,19.521 "
   id="polyline2841"
   transform="translate(2,0)"
   style="fill:#065ca9" />
<polyline
   points="30.087,19.606 30.181,19.837 30.22,19.744 30.087,19.606 "
   id="polyline2843"
   transform="translate(2,0)"
   style="fill:#065ca9" />
<polyline
   points="29.952,19.685 30.045,19.912 30.086,19.822 29.952,19.685 "
   id="polyline2845"
   transform="translate(2,0)"
   style="fill:#065ca9" />
<polyline
   points="29.792,19.772 29.882,20 29.925,19.91 29.792,19.772 "
   id="polyline2847"
   transform="translate(2,0)"
   style="fill:#065ca9" />
<polyline
   points="29.668,19.859 29.761,20.087 29.802,19.998 29.668,19.859 "
   id="polyline2849"
   transform="translate(2,0)"
   style="fill:#065ca9" />
<polyline
   points="29.533,19.947 29.624,20.175 29.667,20.083 29.533,19.947 "
   id="polyline2851"
   transform="translate(2,0)"
   style="fill:#065ca9" />
<polyline
   points="29.386,20.055 29.479,20.285 29.52,20.192 29.386,20.055 "
   id="polyline2853"
   transform="translate(2,0)"
   style="fill:#065ca9" />
<polyline
   points="29.243,20.149 29.335,20.378 29.377,20.286 29.243,20.149 "
   id="polyline2855"
   transform="translate(2,0)"
   style="fill:#065ca9" />
<polyline
   points="29.102,20.271 29.193,20.499 29.234,20.409 29.102,20.271 "
   id="polyline2857"
   transform="translate(2,0)"
   style="fill:#065ca9" />
<polyline
   points="28.971,20.36 29.063,20.589 29.105,20.499 28.971,20.36 "
   id="polyline2859"
   transform="translate(2,0)"
   style="fill:#065ca9" />
<polyline
   points="28.845,20.441 28.937,20.671 28.978,20.578 28.845,20.441 "
   id="polyline2861"
   transform="translate(2,0)"
   style="fill:#065ca9" />
<polyline
   points="28.728,20.534 28.818,20.763 28.86,20.672 28.728,20.534 "
   id="polyline2863"
   transform="translate(2,0)"
   style="fill:#065ca9" />
<polyline
   points="28.608,20.64 28.701,20.869 28.74,20.779 28.608,20.64 "
   id="polyline2865"
   transform="translate(2,0)"
   style="fill:#065ca9" />
<polyline
   points="29.879,18.322 29.737,18.174 29.793,18.119 29.879,18.322 "
   id="polyline2867"
   transform="translate(2,0)"
   style="fill:#065ca9" />
<polyline
   points="30.223,18.121 30.181,17.92 30.101,17.934 30.223,18.121 "
   id="polyline2869"
   transform="translate(2,0)"
   style="fill:#065ca9" />
<path
   d="M 30.669,20.387 C 30.669,20.387 30.388,20.117 30.265,19.754 C 30.258,19.738 30.231,19.834 30.25,19.91 C 30.253,19.91 30.268,19.978 30.163,19.932 C 30.169,19.933 30.013,19.87 29.864,19.857 C 29.864,19.857 29.968,19.924 30.059,20.015 C 30.064,20.018 30.151,20.093 30.013,20.093 C 30.021,20.088 29.941,20.118 29.89,20.13 C 29.896,20.132 30.222,20.13 30.669,20.387"
   id="path2871"
   style="fill:#065ca9" />
<path
   d="M 31.509,19.854 C 31.509,19.854 31.176,19.511 30.77,19.437 C 30.773,19.436 30.84,19.407 30.925,19.404 C 30.933,19.399 31.024,19.399 30.928,19.29 C 30.927,19.285 30.777,19.108 30.777,19.108 C 30.777,19.108 30.9,19.157 31.027,19.258 C 31.036,19.258 31.126,19.336 31.135,19.198 C 31.142,19.19 31.134,19.144 31.15,19.093 C 31.155,19.086 31.245,19.454 31.509,19.854"
   id="path2873"
   style="fill:#065ca9" />
<path
   d="M 32.591,19.198 C 32.591,19.198 32.263,18.757 31.861,18.605 C 31.873,18.588 32.275,18.745 32.088,18.259 C 32.39,18.683 32.489,18.268 32.506,18.268 C 32.407,18.683 32.591,19.198 32.591,19.198"
   id="path2875"
   style="fill:#065ca9" />
<path
   d="M 34.7,18.358 C 34.7,18.358 34.633,17.977 34.395,17.671 C 34.387,17.657 34.484,17.689 34.536,17.746 C 34.533,17.749 34.583,17.8 34.603,17.689 C 34.6,17.695 34.636,17.532 34.708,17.401 C 34.708,17.401 34.707,17.526 34.732,17.65 C 34.729,17.655 34.746,17.769 34.822,17.656 C 34.816,17.66 34.885,17.61 34.921,17.578 C 34.919,17.583 34.739,17.846 34.7,18.358"
   id="path2877"
   style="fill:#065ca9" />
<path
   d="M 33.75,18.686 C 33.75,18.686 33.652,18.221 33.818,17.848 C 33.815,17.849 33.753,17.892 33.702,17.959 C 33.696,17.96 33.645,18.034 33.606,17.894 C 33.603,17.892 33.54,17.669 33.54,17.669 C 33.54,17.669 33.511,17.797 33.527,17.959 C 33.522,17.967 33.533,18.084 33.412,18.014 C 33.404,18.014 33.369,17.982 33.319,17.969 C 33.307,17.965 33.564,18.245 33.75,18.686"
   id="path2879"
   style="fill:#065ca9" />
<g
   id="g2881"
   transform="translate(2,0)">
	<defs
   id="defs2883">
		<rect
   id="XMLID_11_"
   width="130.42799"
   height="100"
   x="0"
   y="0" />
	</defs>
	<clipPath
   id="XMLID_24_">
		<use
   xlink:href="#XMLID_11_"
   id="use2887"
   x="0"
   y="0"
   width="130.42799"
   height="100" />
	</clipPath>
	<path
   clip-path="url(#XMLID_24_)"
   d="M 102.128,69.953 L 94.276,36.714 L 117.874,31.139 L 125.725,64.379 L 102.128,69.953 z M 94.321,36.692 L 63.036,21.921 L 73.255,0.277 L 104.54,15.046 L 94.321,36.692 z M 32.079,36.583 L 21.565,15.089 L 52.428,0.42 L 62.944,21.914 L 32.079,36.583 z M 32.018,36.561 L 23.779,70.009 L 0.357,64.241 L 8.595,30.791 L 32.018,36.561 z "
   id="path2889"
   style="fill:none;stroke:#231f20;stroke-width:0.27200001" />
	<polyline
   clip-path="url(#XMLID_24_)"
   points="48.466,80.131 63.53,80.131 63.53,83.046 52.127,83.046    52.127,88.097 62.679,88.097 62.679,90.851 52.127,90.851 52.127,96.497 63.734,96.497 63.734,99.413 48.466,99.413 48.466,80.131     "
   id="polyline2891"
   style="fill:#231f20" />
	<polygon
   clip-path="url(#XMLID_24_)"
   points="48.466,80.131 63.53,80.131 63.53,83.046 52.127,83.046 52.127,88.097 62.679,88.097 62.679,90.851 52.127,90.851 52.127,96.497 63.734,96.497 63.734,99.413 48.466,99.413 48.466,80.131 "
   id="polygon2893"
   style="fill:none;stroke:#231f20;stroke-width:0.56199998" />
</g>
<path
   d="M 37.299,91.743 L 42.845,91.743 L 40.123,83.452 L 40.045,83.452 L 37.299,91.743 M 38.418,80.131 L 41.803,80.131 L 48.799,99.413 L 45.392,99.413 L 43.685,94.309 L 36.434,94.309 L 34.727,99.413 L 31.445,99.413 L 38.418,80.131 z "
   id="path2895"
   style="fill:#231f20" />
<g
   id="g2897"
   transform="translate(2,0)">
	<defs
   id="defs2899">
		<rect
   id="XMLID_13_"
   width="130.42799"
   height="100"
   x="0"
   y="0" />
	</defs>
	<clipPath
   id="XMLID_25_">
		<use
   xlink:href="#XMLID_13_"
   id="use2903"
   x="0"
   y="0"
   width="130.42799"
   height="100" />
	</clipPath>
	<path
   clip-path="url(#XMLID_25_)"
   d="M 35.299,91.743 L 40.845,91.743 L 38.123,83.452 L 38.045,83.452 L 35.299,91.743 z M 36.418,80.131 L 39.803,80.131 L 46.799,99.413 L 43.392,99.413 L 41.685,94.309 L 34.434,94.309 L 32.727,99.413 L 29.445,99.413 L 36.418,80.131 z "
   id="path2905"
   style="fill:none;stroke:#231f20;stroke-width:0.56699997" />
</g>
<polyline
   points="80.438,80.131 95.501,80.131 95.501,83.046 84.101,83.046 84.101,88.097 94.65,88.097   94.65,90.851 84.101,90.851 84.101,96.497 95.706,96.497 95.706,99.413 80.438,99.413 80.438,80.131 "
   id="polyline2907"
   transform="translate(2,0)"
   style="fill:#231f20" />
<g
   id="g2909"
   transform="translate(2,0)">
	<defs
   id="defs2911">
		<rect
   id="XMLID_15_"
   width="130.42799"
   height="100"
   x="0"
   y="0" />
	</defs>
	<clipPath
   id="XMLID_26_">
		<use
   xlink:href="#XMLID_15_"
   id="use2915"
   x="0"
   y="0"
   width="130.42799"
   height="100" />
	</clipPath>
	<polygon
   clip-path="url(#XMLID_26_)"
   points="80.438,80.131 95.501,80.131 95.501,83.046 84.101,83.046 84.101,88.097 94.65,88.097 94.65,90.851 84.101,90.851 84.101,96.497 95.706,96.497 95.706,99.413 80.438,99.413 80.438,80.131 "
   id="polygon2917"
   style="fill:none;stroke:#231f20;stroke-width:0.56199998" />
</g>
<polyline
   points="68.789,96.749 78.299,96.749 78.299,99.173 65.764,99.173 65.764,80.401 68.789,80.401   68.789,96.749 "
   id="polyline2919"
   transform="translate(2,0)"
   style="fill:#231f20" />
<g
   id="g2921"
   transform="translate(2,0)">
	<defs
   id="defs2923">
		<rect
   id="XMLID_17_"
   width="130.42799"
   height="100"
   x="0"
   y="0" />
	</defs>
	<clipPath
   id="XMLID_27_">
		<use
   xlink:href="#XMLID_17_"
   id="use2927"
   x="0"
   y="0"
   width="130.42799"
   height="100" />
	</clipPath>
	<polygon
   clip-path="url(#XMLID_27_)"
   points="68.789,96.749 78.299,96.749 78.299,99.173 65.764,99.173 65.764,80.401 68.789,80.401 68.789,96.749 "
   id="polygon2929"
   style="fill:none;stroke:#231f20;stroke-width:0.92000002" />
</g>
<g
   id="g2931"
   transform="translate(2,0)">
	<line
   x1="0"
   y1="74.787003"
   x2="125.581"
   y2="74.787003"
   id="line2933"
   style="fill:none;stroke:#231f20;stroke-width:1.34800005" />
</g>
</svg>